<svg width="48" height="48" viewBox="0 0 48 48" fill="none" xmlns="http://www.w3.org/2000/svg">
<path d="M38.0399 39.0403V29.9269C38.0452 28.2888 37.2854 26.7421 35.9842 25.7456C34.683 24.7509 32.9911 24.4212 31.4122 24.8549L11.8195 5.26223C9.42871 2.95385 5.95912 6.39852 8.24942 8.82518L27.7742 28.3499C27.3028 29.2264 27.62 37.9171 27.5322 39.0389V39.0407C26.6576 39.1841 26.016 39.9386 26.0142 40.8239V42.3509L24.0571 42.3491V43.4495C25.8619 43.4459 36.646 43.4513 38.6923 43.4495C39.1708 43.4495 39.5579 43.0624 39.5579 42.5839V40.8239C39.5561 39.9368 38.9127 39.1837 38.0399 39.0403ZM36.9395 29.9269V39.01H28.6327V29.9269C28.6309 28.8247 29.0664 27.7655 29.846 26.9858C30.6256 26.2044 31.683 25.7653 32.7852 25.7653C33.8892 25.7653 34.9466 26.2044 35.7263 26.9858C36.5041 27.7655 36.9412 28.8247 36.9395 29.9269ZM12.1709 7.1602L14.5833 9.57254V13.6051L12.1709 11.1927V7.1602ZM19.9368 14.9261L22.342 17.3384V21.3637L19.9368 18.9586V14.9261ZM27.6935 26.7171V22.6917L30.2958 25.2941H30.2976C29.4427 25.7493 28.7348 26.4357 28.2527 27.2745L27.6935 26.7171ZM38.4577 42.3506L27.1144 42.3488V40.8219V40.8237C27.1144 40.4294 27.4335 40.1103 27.826 40.1103H37.746C38.1385 40.1103 38.4575 40.4294 38.4575 40.8237L38.4577 42.3506Z" fill="white"/>
<path d="M32.785 32.1421C34.1256 32.1277 35.2045 31.0362 35.2045 29.6957C35.2045 28.3551 34.1256 27.2636 32.785 27.2475C31.4444 27.2636 30.3655 28.3551 30.3655 29.6957C30.3655 31.0362 31.4445 32.1277 32.785 32.1421ZM32.785 28.3479C33.5217 28.3587 34.1131 28.9591 34.1131 29.6957C34.1131 30.4323 33.5216 31.0309 32.785 31.0416C32.0502 31.0309 31.4588 30.4323 31.4588 29.6957C31.4588 28.9591 32.0503 28.3587 32.785 28.3479Z" fill="white"/>
</svg>
