<svg width="47" height="48" viewBox="0 0 47 48" fill="none" xmlns="http://www.w3.org/2000/svg">
<path d="M8.72784 31.4596C8.83414 31.4596 8.94043 31.4302 9.03224 31.3763L10.3851 30.588C10.733 30.3824 11.134 30.2747 11.5399 30.2747C11.9458 30.2747 12.342 30.3824 12.6947 30.5832L14.3374 31.533C14.8689 31.8415 15.4777 32.0031 16.0962 32.0031C16.5793 32.0031 17.048 31.9051 17.4877 31.7142L20.6622 30.3334C20.957 30.2061 21.2662 30.1425 21.5803 30.1425C21.9668 30.1425 22.3485 30.2404 22.6916 30.4314L24.6533 31.5184C25.1703 31.8072 25.7597 31.959 26.3492 31.959C26.9097 31.959 27.4701 31.8219 27.9726 31.5575L30.0116 30.4902C30.3402 30.3188 30.7074 30.2258 31.0794 30.2258C31.4804 30.2258 31.8815 30.3335 32.2294 30.5391L33.9156 31.5135C34.4471 31.822 35.0559 31.9835 35.6743 31.9835C36.1817 31.9835 36.6745 31.8758 37.1335 31.6653L38.5251 31.0239C38.8295 30.8819 38.9647 30.5195 38.8295 30.2062C38.7328 29.9858 38.5154 29.8439 38.2738 29.8439C38.1868 29.8439 38.1047 29.8634 38.0226 29.8977L36.631 30.5391C36.3266 30.6762 36.0078 30.7497 35.6743 30.7497C35.2685 30.7497 34.8723 30.642 34.5196 30.4412L32.8333 29.4668C32.2922 29.1682 31.6882 29.0017 31.0746 29.0017C30.5141 29.0017 29.9536 29.1388 29.4511 29.4032L27.4121 30.4705C27.0836 30.6419 26.7164 30.7349 26.3492 30.7349C25.9626 30.7349 25.5761 30.637 25.2379 30.4461L23.2762 29.364C22.7544 29.0751 22.1697 28.9233 21.5851 28.9233C21.1067 28.9233 20.6333 29.0213 20.1887 29.2171L17.0142 30.5979C16.7243 30.7252 16.4199 30.7888 16.101 30.7888C15.6952 30.7888 15.2941 30.6811 14.9462 30.4803L13.3035 29.5256C12.772 29.2171 12.168 29.0555 11.5496 29.0555C10.9311 29.0555 10.3223 29.2171 9.78601 29.5304L8.43313 30.3187C8.14323 30.4852 8.04178 30.8671 8.21088 31.1609C8.30751 31.3421 8.51041 31.4596 8.72784 31.4596Z" fill="white"/>
<path d="M38.2692 34.9647C38.1823 34.9647 38.1001 34.9842 38.018 35.0185L36.6265 35.6599C36.3221 35.797 36.0032 35.8705 35.6698 35.8705C35.2639 35.8705 34.8677 35.7628 34.515 35.562L32.8287 34.5876C32.2924 34.2792 31.6885 34.1127 31.0748 34.1127C30.5143 34.1127 29.9539 34.2498 29.4514 34.5142L27.4124 35.5816C27.0838 35.7529 26.7166 35.846 26.3446 35.846C25.9581 35.846 25.5715 35.748 25.2333 35.5571L23.2716 34.475C22.7498 34.1861 22.1652 34.0344 21.5805 34.0344C21.1022 34.0344 20.6287 34.1323 20.1842 34.3281L17.0096 35.7089C16.7197 35.8362 16.4153 35.8998 16.0964 35.8998C15.6906 35.8998 15.2895 35.7921 14.9417 35.5914L13.2989 34.6366C12.7674 34.3281 12.1586 34.1665 11.545 34.1665C10.9265 34.1665 10.3177 34.3281 9.78143 34.6415L8.42373 35.4151C8.28362 35.4983 8.18215 35.6305 8.13866 35.7872C8.09518 35.9439 8.11934 36.1104 8.19664 36.2573C8.30294 36.4482 8.50587 36.5657 8.72329 36.5657C8.82959 36.5657 8.93588 36.5364 9.02769 36.4825L10.3806 35.6942C10.7284 35.4886 11.1295 35.3808 11.5353 35.3808C11.9412 35.3808 12.3374 35.4886 12.6901 35.6893L14.3329 36.6392C14.8644 36.9476 15.4732 37.1092 16.0916 37.1092C16.5748 37.1092 17.0435 37.0113 17.4832 36.8203L20.6577 35.4396C20.9524 35.3123 21.2616 35.2486 21.5757 35.2486C21.9623 35.2486 22.344 35.3466 22.687 35.5375L24.6487 36.6245C25.1657 36.9134 25.7551 37.0652 26.3446 37.0652C26.9051 37.0652 27.4656 36.9281 27.9681 36.6637L30.0071 35.5963C30.3356 35.4249 30.7028 35.3319 31.07 35.3319C31.4711 35.3319 31.8721 35.4396 32.2248 35.6453L33.9111 36.6196C34.4426 36.9281 35.0513 37.0897 35.6698 37.0897C36.1771 37.0897 36.67 36.982 37.129 36.7714L38.5205 36.13C38.8249 35.988 38.9602 35.6257 38.8249 35.3172C38.7234 35.1067 38.506 34.9647 38.2692 34.9647Z" fill="white"/>
<path d="M10.682 15.7376C11.0154 15.7376 11.2908 15.4634 11.2908 15.1207V13.8574C11.2908 12.8978 12.059 12.1192 13.006 12.1192C13.9531 12.1192 14.7213 12.8978 14.7213 13.8574V28.845C14.7213 29.1828 14.9919 29.4619 15.3301 29.4619C15.6683 29.4619 15.9389 29.1877 15.9389 28.845V27.19H26.6169V28.8401C26.6169 29.1779 26.8874 29.457 27.2257 29.457C27.5591 29.457 27.8345 29.1828 27.8345 28.8401V13.8576C27.8345 12.2222 26.5203 10.8855 24.9016 10.8855C23.2878 10.8855 21.9688 12.2173 21.9688 13.8576V15.1208C21.9688 15.4586 22.2394 15.7377 22.5776 15.7377C22.911 15.7377 23.1864 15.4635 23.1864 15.1208V13.8576C23.1864 12.8979 23.9547 12.1194 24.9017 12.1194C25.8487 12.1194 26.6169 12.8979 26.6169 13.8576V16.1245H15.939V13.8576C15.939 12.2222 14.6248 10.8855 13.0061 10.8855C11.3875 10.8855 10.0781 12.2173 10.0781 13.8576V15.1208C10.0781 15.4586 10.3486 15.7376 10.682 15.7376ZM15.9389 22.274H26.6168V25.9611H15.9389V22.274ZM26.6168 21.0402H15.9389V17.3532H26.6168V21.0402Z" fill="white"/>
</svg>
