<svg width="47" height="49" viewBox="0 0 47 49" fill="none" xmlns="http://www.w3.org/2000/svg">
<path d="M33.0975 10.3643C33.0661 10.365 33.0348 10.3675 33.0037 10.3716C32.78 10.3982 32.5738 10.5108 32.4254 10.6873C32.277 10.8639 32.197 11.0917 32.2011 11.3264V15.0886H18.6226H13.1912H11.2587C11.2281 15.0869 11.1974 15.0869 11.1668 15.0886C10.9308 15.1071 10.7111 15.221 10.5546 15.4061C10.3982 15.5912 10.3173 15.8327 10.3293 16.0791C10.3413 16.3255 10.4452 16.5572 10.6189 16.7248C10.7925 16.8924 11.0221 16.9826 11.2587 16.9761H12.2895V19.9161C12.2886 20.1664 12.383 20.4068 12.5521 20.5845C12.7212 20.7621 12.9511 20.8625 13.1912 20.8635H18.6226C18.7416 20.8633 18.8594 20.8385 18.9692 20.7908C19.0791 20.743 19.1788 20.6731 19.2627 20.5851C19.3467 20.4971 19.4131 20.3927 19.4583 20.2779C19.5035 20.1631 19.5265 20.0402 19.526 19.9161V16.9761H32.2011V37.687C32.2011 37.9376 32.2965 38.1779 32.4665 38.355C32.6364 38.5322 32.8669 38.6317 33.1072 38.6317C33.3475 38.6317 33.578 38.5322 33.7479 38.355C33.9178 38.1779 34.0133 37.9376 34.0133 37.687V16.9761H35.7495C35.8701 16.9789 35.99 16.9566 36.1022 16.9104C36.2144 16.8642 36.3166 16.7952 36.4029 16.7073C36.4891 16.6194 36.5576 16.5144 36.6044 16.3985C36.6512 16.2825 36.6753 16.1581 36.6753 16.0323C36.6753 15.9066 36.6512 15.7821 36.6044 15.6662C36.5576 15.5503 36.4891 15.4453 36.4029 15.3574C36.3166 15.2694 36.2144 15.2004 36.1022 15.1542C35.99 15.1081 35.8701 15.0857 35.7495 15.0886H34.0133V11.3264C34.0157 11.2 33.9936 11.0744 33.9485 10.9571C33.9034 10.8397 33.8362 10.733 33.7508 10.6432C33.6653 10.5535 33.5635 10.4825 33.4513 10.4346C33.339 10.3867 33.2187 10.3628 33.0975 10.3643ZM14.0999 16.9761H17.7138V18.9742H14.0999V16.9761Z" fill="white"/>
</svg>
