<svg width="48" height="48" viewBox="0 0 48 48" fill="none" xmlns="http://www.w3.org/2000/svg">
<path d="M19.1392 26.9735C18.5141 26.525 19.253 25.6281 19.822 26.0782L23.4589 28.8209L23.4606 21.4848C23.4606 20.7017 24.5987 20.7017 24.5987 21.4848V24.0635C25.11 23.5012 26.0748 22.4955 26.0748 22.4955C26.6422 21.9918 27.4405 22.775 26.9292 23.3355C26.9292 23.3355 25.3375 24.7913 24.5986 25.3519V28.769L28.0096 26.0263C28.5769 25.5762 29.2581 26.4179 28.6907 26.8663L24.5986 30.2282V32.7482C25.679 32.5809 26.7016 32.0203 27.3827 31.1803C27.6086 30.9008 28.0639 30.9008 28.2915 31.1803C29.1459 32.2429 30.4539 32.8603 31.8162 32.8603C34.3183 32.8603 36.3635 30.8439 36.3635 28.3808C36.3635 26.5334 34.9417 24.4049 32.7844 23.9581C32.443 23.8996 32.2154 23.5649 32.3292 23.2302C32.8388 21.7175 32.4973 19.9839 31.3609 18.8076C30.6203 17.9676 29.5416 17.4622 28.4035 17.3518C28.0621 17.3518 27.7224 17.0171 27.8939 16.5687C28.2337 15.9529 28.4035 15.2785 28.4035 14.6092C28.4035 12.0891 26.3584 10.1296 23.8019 10.1296C21.2998 10.1296 19.2528 12.0891 19.2528 14.6092C19.2528 15.2802 19.4227 15.9546 19.7641 16.5687C19.9357 16.9034 19.7098 17.3518 19.3089 17.4087C18.2302 17.5208 17.206 18.0814 16.5248 18.9197C15.4445 20.0961 15.103 21.7745 15.616 23.2318C15.7299 23.5665 15.5566 23.9028 15.2169 23.9597C13.1139 24.4634 11.6378 26.2556 11.6378 28.3823C11.6378 30.8455 13.6813 32.8619 16.1851 32.8619C17.5474 32.8619 18.7993 32.2997 19.6521 31.294C19.8797 31.0145 20.2789 31.0145 20.5065 31.294C21.2454 32.0771 22.324 32.6393 23.4621 32.7498V30.2297L19.1392 26.9735ZM24.5971 33.861V38.4528C24.5971 39.1824 23.459 39.1824 23.459 38.4528L23.4606 33.861C22.2087 33.7489 21.0163 33.2452 20.1058 32.4069C19.0272 33.4142 17.6614 33.9731 16.1853 33.9731C13.0598 33.9731 10.5 31.453 10.5 28.3759C10.5 25.9662 12.0917 23.7823 14.4222 23.0545C14.0247 21.3176 14.4799 19.5271 15.6707 18.1264C16.4113 17.3416 17.3796 16.7258 18.4565 16.4463C18.2289 15.8305 18.1134 15.2131 18.1134 14.5989C18.1134 11.4647 20.6732 9 23.8004 9C26.982 9 29.5401 11.4649 29.5401 14.5989C29.5401 15.1595 29.4263 15.7753 29.2004 16.3359C30.3928 16.6154 31.4171 17.1759 32.2138 18.016C33.464 19.3597 33.9753 21.2623 33.5778 22.9993C35.9084 23.7825 37.5 25.911 37.5 28.376C37.5 31.4549 34.9401 33.9732 31.8147 33.9732C30.3386 33.9732 28.9168 33.3574 27.8347 32.3517C26.9277 33.1884 25.7929 33.692 24.5971 33.861Z" fill="white"/>
</svg>
