<svg width="47" height="47" viewBox="0 0 47 47" fill="none" xmlns="http://www.w3.org/2000/svg">
<path d="M37.0075 39.9084L37.0074 39.9084C36.9079 39.9815 36.7928 40.0164 36.6783 40.0164C36.5085 40.0164 36.341 39.9386 36.2327 39.7921L37.0075 39.9084ZM37.0075 39.9084C37.2531 39.7275 37.3061 39.3825 37.1242 39.1368L37.084 39.1665L37.1242 39.1368L28.5504 27.5587C32.1172 26.1208 34.9226 23.2096 36.2131 19.5838C36.2335 19.5462 36.2453 19.5073 36.2548 19.4707C36.5216 18.7 36.7162 17.8985 36.8378 17.0726H37.6197C37.9255 17.0726 38.1739 16.8264 38.1739 16.5208C38.1739 16.2156 37.9258 15.969 37.6197 15.969H36.9547C36.957 15.9367 36.9593 15.9042 36.9616 15.8718C36.9794 15.6227 36.9973 15.3715 36.9973 15.116C36.9973 14.8112 36.7496 14.5643 36.4431 14.5643H10.5679C10.2621 14.5643 10.0137 14.8108 10.0137 15.116C10.0137 15.3742 10.032 15.6279 10.0501 15.8795C10.0523 15.9094 10.0544 15.9392 10.0565 15.969H9.39162C9.08553 15.969 8.83745 16.2156 8.83745 16.5205C8.83745 16.8257 9.08551 17.0723 9.39162 17.0723H10.1735C10.2955 17.8985 10.4898 18.6997 10.7568 19.4704C10.7663 19.5067 10.7778 19.5457 10.7983 19.5834C12.089 23.2073 14.8922 26.1185 18.4574 27.5564L13.9436 33.6576C13.4924 33.4327 12.9896 33.2943 12.4494 33.2943C10.587 33.2943 9.07167 34.8018 9.07167 36.656C9.07167 38.5093 10.587 40.017 12.4494 40.017C14.3109 40.017 15.8262 38.5093 15.8262 36.656C15.8262 35.7354 15.4521 34.9025 14.8484 34.2956L16.8507 31.5883H30.1574L36.2327 39.7921L37.0075 39.9084ZM12.4494 38.9135C11.1979 38.9135 10.18 37.901 10.18 36.6557C10.18 35.4106 11.1982 34.3972 12.4494 34.3972C13.7013 34.3972 14.7182 35.4106 14.7182 36.6557C14.7182 37.901 13.701 38.9135 12.4494 38.9135ZM11.6925 18.7789C11.3812 17.7878 11.1826 16.748 11.134 15.6678H35.877C35.8285 16.7477 35.6298 17.7875 35.3185 18.7789H11.6925ZM27.4663 27.9528L29.3414 30.4847H17.6673L19.5415 27.9521C20.7957 28.3359 22.1269 28.5437 23.506 28.5437C24.8841 28.5437 26.2133 28.3368 27.4663 27.9528ZM23.5057 27.4404C18.3765 27.4404 13.9771 24.3148 12.0994 19.8819H34.9119C33.0342 24.3151 28.6349 27.4404 23.5057 27.4404Z" fill="white" stroke="white" stroke-width="0.1"/>
</svg>
