<svg width="48" height="48" viewBox="0 0 48 48" fill="none" xmlns="http://www.w3.org/2000/svg">
<path d="M36.5745 23.5373C36.5745 30.7363 30.7363 36.5745 23.5373 36.5745C16.336 36.5745 10.5 30.7363 10.5 23.5373C10.5 16.336 16.336 10.5 23.5373 10.5C30.7363 10.5 36.5745 16.336 36.5745 23.5373ZM35.6088 23.5373C35.6088 16.869 30.2056 11.4637 23.5375 11.4637C16.8693 11.4637 11.4639 16.8691 11.4639 23.5373C11.4639 30.2033 16.8693 35.6086 23.5375 35.6086C30.2057 35.6086 35.6088 30.2032 35.6088 23.5373Z" fill="white"/>
<path d="M23.8532 18.9161L19.0553 22.3856L19.2454 21.8066L21.0719 27.4502L20.565 27.0919L20.7027 27.0875C21.6313 27.0635 22.5663 27.0394 23.4927 27.0394H23.5386C24.5283 27.0394 25.4984 27.0679 26.4663 27.0984L25.9595 27.448L27.8624 21.833L28.0482 22.4163L23.2437 18.9162L23.8532 18.9161ZM23.2459 18.0772C23.4272 17.9461 23.6741 17.9461 23.8554 18.0794L28.6577 21.5796C28.8412 21.7128 28.9155 21.951 28.8434 22.1651L26.9404 27.7824C26.8683 27.9965 26.663 28.1407 26.4357 28.132C25.4613 28.1036 24.5131 28.0752 23.5386 28.0752H23.4927C22.5838 28.0752 21.6597 28.0992 20.7311 28.1232L20.5934 28.1276C20.364 28.1341 20.1586 27.9878 20.0865 27.7693L18.26 22.1257C18.1901 21.9116 18.2666 21.6778 18.4479 21.5467L23.2459 18.0772Z" fill="white"/>
<path d="M23.0031 18.4597L23.0053 18.3614L23.0337 14.0201L23.2434 14.4396L19.9967 12.0231C19.7673 11.8527 19.7214 11.5294 19.8919 11.2999C20.0623 11.0705 20.3856 11.0225 20.6151 11.1907L23.8792 13.6115H23.2631L26.5163 11.1972C26.7457 11.0268 27.0713 11.0749 27.2417 11.3043C27.4121 11.5337 27.3641 11.8592 27.1325 12.0297L23.8814 14.4418C23.6979 14.5794 23.4466 14.5794 23.2631 14.4418L19.9989 12.0231L20.6151 11.1929L23.8618 13.6071C23.9929 13.7055 24.0715 13.8628 24.0693 14.0266L24.0409 18.3679V18.4684C24.0365 18.7546 23.8028 18.9841 23.5187 18.9819C23.2325 18.9797 23.0009 18.7459 23.0031 18.4597Z" fill="white"/>
<path d="M28.1191 21.5075L32.4364 20.1223L32.1043 20.4478L33.4021 16.6505L34.3809 16.987L33.0853 20.7777L32.8996 20.1899L36.1747 22.5605C36.4085 22.7266 36.4588 23.0521 36.2927 23.2837C36.1245 23.5153 35.8011 23.5656 35.5695 23.3995L32.2922 21.0289C32.1087 20.8957 32.0322 20.6575 32.1065 20.4412L33.4021 16.6505C33.4939 16.3818 33.7888 16.2354 34.0598 16.3293C34.3307 16.4211 34.4749 16.7161 34.3809 16.987L33.0853 20.7821C33.0307 20.9372 32.9083 21.0574 32.7532 21.1076L28.4359 22.495C28.1628 22.5824 27.8701 22.4317 27.7826 22.1608C27.6952 21.8877 27.846 21.5949 28.1191 21.5075Z" fill="white"/>
<path d="M26.8639 27.3127L29.4704 30.8587L29.0553 30.6467L33.4512 30.6664L33.4425 31.702L29.0553 31.6452L29.5578 31.2804L28.3146 35.283C28.2294 35.5561 27.941 35.709 27.6679 35.6238C27.3926 35.5386 27.2418 35.2502 27.3249 34.9771L28.5681 30.9723C28.6358 30.7538 28.8412 30.6052 29.0706 30.6074L33.4556 30.6664C33.7396 30.6686 33.969 30.9024 33.9668 31.1886C33.9646 31.4726 33.7309 31.702 33.4468 31.702L29.0531 31.6845C28.887 31.6824 28.7341 31.6037 28.6379 31.4726L26.0292 27.9266C25.861 27.695 25.9112 27.3717 26.1406 27.2034C26.3722 27.033 26.6956 27.0833 26.8639 27.3127Z" fill="white"/>
<path d="M20.8999 27.9833L18.3415 31.5184L18.4179 31.0618L19.6262 34.9836L18.6343 35.2851L17.4392 31.3567L17.9439 31.7238L13.8626 31.7871C13.5763 31.7915 13.3404 31.5643 13.336 31.2781C13.3316 30.9919 13.5589 30.7559 13.8451 30.7515L17.9286 30.6882C18.158 30.6838 18.3634 30.8346 18.4311 31.0552L19.6262 34.9836C19.7092 35.2567 19.5563 35.5473 19.2832 35.6303C19.0101 35.7133 18.7195 35.5603 18.6365 35.2872L17.4282 31.3676C17.3802 31.2125 17.4064 31.0421 17.5025 30.911L20.061 27.3759C20.227 27.1443 20.5526 27.094 20.7842 27.2601C21.0158 27.4283 21.066 27.7517 20.8999 27.9833Z" fill="white"/>
<path d="M18.7063 22.4863L14.3431 21.088L14.791 21.0224L11.446 23.3012C11.21 23.4629 10.8867 23.4017 10.7271 23.1658C10.5655 22.9298 10.6266 22.6064 10.8626 22.4447L14.2142 20.1528L14.0175 20.7493L12.7197 16.9979C12.6258 16.727 12.77 16.432 13.0409 16.338C13.3096 16.2441 13.6046 16.3883 13.6986 16.6592L14.9964 20.4106C15.0728 20.6313 14.992 20.8738 14.7997 21.0071L11.446 23.3012L10.8626 22.4447L14.2098 20.1659C14.3409 20.0764 14.5069 20.0523 14.6577 20.1004L19.023 21.5009C19.2962 21.5883 19.4447 21.8789 19.3573 22.152C19.2699 22.4251 18.9794 22.5737 18.7063 22.4863Z" fill="white"/>
</svg>
