<svg width="47" height="47" viewBox="0 0 47 47" fill="none" xmlns="http://www.w3.org/2000/svg">
<path fill-rule="evenodd" clip-rule="evenodd" d="M9.1944 35.159C9.01049 35.159 8.86003 35.3083 8.86003 35.4917L8.86005 37.7341C8.86005 37.9177 9.01047 38.0667 9.19434 38.0667L37.8128 38.0667C37.9974 38.0667 38.1471 37.9177 38.1471 37.7341L38.1472 35.4917C38.1472 35.3083 37.9974 35.1591 37.8128 35.1591L9.1944 35.159ZM37.8127 38.7318H9.1944C8.64138 38.7318 8.19141 38.2843 8.19141 37.7341L8.19147 35.4917C8.19147 34.9415 8.64134 34.494 9.19434 34.494L37.8128 34.494C38.3659 34.494 38.8157 34.9415 38.8157 35.4917L38.8158 37.7341C38.8158 38.2842 38.3657 38.7318 37.8127 38.7318Z" fill="white"/>
<path fill-rule="evenodd" clip-rule="evenodd" d="M20.0664 19.8604H9.1944C8.64138 19.8604 8.19141 19.4128 8.19141 18.8627L8.19147 13.2919C8.19147 12.7418 8.64134 12.2943 9.19434 12.2943L17.8078 12.2942C17.9923 12.2942 18.142 12.4432 18.142 12.6268C18.142 12.8105 17.9923 12.9594 17.8077 12.9594L9.1944 12.9594C9.01049 12.9594 8.86003 13.1086 8.86003 13.292L8.86005 18.8627C8.86005 19.046 9.01047 19.1953 9.19434 19.1953L20.0664 19.1952C20.251 19.1952 20.4007 19.3442 20.4007 19.5278C20.4008 19.7115 20.251 19.8604 20.0664 19.8604ZM37.8127 19.8604H26.9407C26.7561 19.8604 26.6064 19.7115 26.6064 19.5278C26.6064 19.3441 26.7561 19.1953 26.9407 19.1953L37.8127 19.1952C37.9974 19.1952 38.147 19.0461 38.147 18.8627L38.1471 13.2919C38.1471 13.1086 37.9973 12.9594 37.8127 12.9594L29.2001 12.9594C29.0155 12.9594 28.8657 12.8105 28.8657 12.6268C28.8657 12.4432 29.0155 12.2943 29.2 12.2943L37.8127 12.2942C38.3658 12.2942 38.8157 12.7419 38.8157 13.292L38.8157 18.8627C38.8157 19.4128 38.3657 19.8604 37.8127 19.8604Z" fill="white"/>
<path fill-rule="evenodd" clip-rule="evenodd" d="M11.0179 35.1591C10.8333 35.1591 10.6836 35.0102 10.6836 34.8266V19.5279C10.6836 19.3442 10.8333 19.1954 11.0179 19.1954C11.2025 19.1953 11.3522 19.3443 11.3522 19.5279L11.3523 34.8265C11.3523 35.0102 11.2025 35.1591 11.0179 35.1591ZM35.9917 35.1591C35.8071 35.1591 35.6574 35.0102 35.6574 34.8266L35.6574 19.5279C35.6574 19.3442 35.8071 19.1954 35.9917 19.1954C36.1762 19.1953 36.326 19.3443 36.326 19.5279L36.326 34.8265C36.326 35.0102 36.1762 35.1591 35.9917 35.1591Z" fill="white"/>
<path fill-rule="evenodd" clip-rule="evenodd" d="M23.5051 8.93259C20.3647 8.93259 17.8093 11.4745 17.8093 14.5988C17.8093 17.7231 20.3647 20.265 23.5051 20.265C26.6462 20.265 29.2016 17.7231 29.2016 14.5988C29.2016 11.4744 26.6462 8.93267 23.5051 8.93259ZM23.5051 20.9301C19.9963 20.9301 17.1406 18.0899 17.1406 14.5988C17.1406 11.1077 19.9962 8.26746 23.5051 8.26746C27.0147 8.26742 29.8702 11.1078 29.8702 14.5988C29.8703 18.0899 27.0146 20.9301 23.5051 20.9301Z" fill="white"/>
<path fill-rule="evenodd" clip-rule="evenodd" d="M22.7936 12.6448V13.9714L26.2036 12.8012V11.4747L22.7936 12.6448ZM22.4594 14.7704C22.3911 14.7704 22.3228 14.7494 22.2657 14.7087C22.1773 14.6463 22.125 14.5454 22.125 14.4379L22.125 12.4077C22.125 12.2658 22.2155 12.1396 22.3507 12.0934L26.4293 10.6938C26.5317 10.6588 26.6445 10.6751 26.7322 10.7374C26.82 10.7998 26.8722 10.9007 26.8722 11.0083L26.8723 13.0383C26.8723 13.1803 26.7817 13.3065 26.6473 13.3527L22.5687 14.7523C22.5332 14.7645 22.4962 14.7705 22.4594 14.7704Z" fill="white"/>
<path fill-rule="evenodd" clip-rule="evenodd" d="M25.5438 15.8753C25.1342 15.8753 24.8835 16.0637 24.8835 16.1663C24.8835 16.2689 25.1342 16.4573 25.5437 16.4573C25.9533 16.4573 26.204 16.2689 26.204 16.1663C26.204 16.0636 25.9532 15.8753 25.5438 15.8753ZM25.5438 17.1224C24.7986 17.1224 24.2148 16.7025 24.2148 16.1663C24.2149 15.6301 24.7985 15.2102 25.5437 15.2102C26.289 15.2101 26.8726 15.6301 26.8726 16.1663C26.8727 16.7025 26.289 17.1224 25.5438 17.1224Z" fill="white"/>
<path fill-rule="evenodd" clip-rule="evenodd" d="M26.5375 16.4988C26.3529 16.4988 26.2031 16.35 26.2031 16.1663V13.0383C26.2031 12.8547 26.3529 12.7058 26.5374 12.7058C26.722 12.7057 26.8718 12.8547 26.8718 13.0384L26.8718 16.1663C26.8718 16.3499 26.722 16.4989 26.5375 16.4988Z" fill="white"/>
<path fill-rule="evenodd" clip-rule="evenodd" d="M21.4656 17.2748C21.0561 17.2748 20.8053 17.4633 20.8053 17.5659C20.8054 17.6684 21.0561 17.8568 21.4656 17.8568C21.8752 17.8568 22.1259 17.6685 22.1259 17.5659C22.1259 17.4632 21.8751 17.2749 21.4656 17.2748ZM21.4656 18.5219C20.7204 18.5219 20.1367 18.102 20.1367 17.5659C20.1367 17.0296 20.7204 16.6097 21.4656 16.6097C22.2108 16.6097 22.7945 17.0297 22.7945 17.5659C22.7945 18.102 22.2108 18.522 21.4656 18.5219Z" fill="white"/>
<path fill-rule="evenodd" clip-rule="evenodd" d="M22.4594 17.8984C22.2748 17.8984 22.125 17.7495 22.125 17.5659L22.125 14.4379C22.125 14.2542 22.2747 14.1053 22.4593 14.1053C22.6439 14.1053 22.7936 14.2542 22.7936 14.4379V17.5658C22.7936 17.7495 22.6439 17.8984 22.4594 17.8984Z" fill="white"/>
<path fill-rule="evenodd" clip-rule="evenodd" d="M28.1966 35.159C28.0121 35.159 27.8623 35.0102 27.8623 34.8265L27.8624 25.2647C27.8624 25.0813 27.7126 24.9321 27.528 24.9321L19.4795 24.9321C19.3911 24.9321 19.3068 24.9668 19.2434 25.0299C19.1801 25.0929 19.1452 25.1763 19.1452 25.2647V34.8265C19.1452 35.0102 18.9954 35.1591 18.8109 35.1591C18.6263 35.159 18.4766 35.0102 18.4766 34.8265L18.4766 25.2647C18.4766 24.9986 18.581 24.7482 18.7712 24.5596C18.9607 24.3709 19.212 24.267 19.4795 24.267L27.5281 24.267C28.0818 24.267 28.5316 24.7146 28.5316 25.2647L28.5317 34.8265C28.5317 35.0102 28.3819 35.1591 28.1966 35.159Z" fill="white"/>
<path fill-rule="evenodd" clip-rule="evenodd" d="M23.5023 35.159C23.3177 35.159 23.168 35.0102 23.168 34.8265V24.5995C23.168 24.4158 23.3177 24.267 23.5023 24.267C23.6868 24.2669 23.8366 24.4159 23.8366 24.5995L23.8367 34.8265C23.8367 35.0102 23.6868 35.1591 23.5023 35.159Z" fill="white"/>
<path fill-rule="evenodd" clip-rule="evenodd" d="M13.96 24.932C13.7754 24.932 13.6256 25.0812 13.6256 25.2646L13.6257 27.8291C13.6257 28.0125 13.7754 28.1617 13.9599 28.1617H15.8697C16.0536 28.1617 16.204 28.0125 16.204 27.8292L16.2041 25.2646C16.2041 25.0812 16.0536 24.9321 15.8697 24.9321L13.96 24.932ZM15.8697 28.8268H13.96C13.407 28.8268 12.957 28.3793 12.957 27.8292L12.9571 25.2646C12.9571 24.7145 13.4069 24.2669 13.9599 24.2669L15.8697 24.2669C16.4228 24.2669 16.8726 24.7145 16.8726 25.2646L16.8727 27.8291C16.8727 28.3793 16.4227 28.8268 15.8697 28.8268Z" fill="white"/>
<path fill-rule="evenodd" clip-rule="evenodd" d="M31.1397 24.932C30.9551 24.932 30.8053 25.0812 30.8053 25.2646L30.8054 27.8291C30.8054 28.0125 30.9551 28.1617 31.1397 28.1617H33.0494C33.2333 28.1617 33.3837 28.0125 33.3837 27.8292L33.3838 25.2646C33.3838 25.0812 33.2333 24.9321 33.0494 24.9321L31.1397 24.932ZM33.0494 28.8268H31.1397C30.5867 28.8268 30.1367 28.3793 30.1367 27.8292L30.1368 25.2646C30.1368 24.7145 30.5866 24.2669 31.1397 24.2669L33.0494 24.2669C33.6025 24.2669 34.0523 24.7145 34.0523 25.2646L34.0524 27.8291C34.0524 28.3793 33.6024 28.8268 33.0494 28.8268Z" fill="white"/>
<path fill-rule="evenodd" clip-rule="evenodd" d="M16.372 22.7702H13.4594C13.2748 22.7702 13.125 22.6213 13.125 22.4377C13.125 22.254 13.2747 22.1051 13.4593 22.1051L16.372 22.1051C16.5566 22.1051 16.7063 22.254 16.7063 22.4377C16.7064 22.6213 16.5566 22.7702 16.372 22.7702Z" fill="white"/>
<path fill-rule="evenodd" clip-rule="evenodd" d="M33.5517 22.7702H30.639C30.4544 22.7702 30.3047 22.6213 30.3047 22.4377C30.3047 22.254 30.4544 22.1051 30.639 22.1051L33.5517 22.1051C33.7363 22.1051 33.886 22.254 33.886 22.4377C33.886 22.6213 33.7362 22.7702 33.5517 22.7702Z" fill="white"/>
</svg>
