<svg width="48" height="48" viewBox="0 0 48 48" fill="none" xmlns="http://www.w3.org/2000/svg">
<path d="M24.3507 19.871C23.2445 19.871 22.3984 20.717 22.3984 21.8233C22.3984 22.9296 23.2444 23.7756 24.3507 23.7756C25.4571 23.7756 26.303 22.9296 26.303 21.8233C26.303 20.717 25.4571 19.871 24.3507 19.871ZM24.3507 22.4741C23.9603 22.4741 23.7 22.2138 23.7 21.8233C23.7 21.4329 23.9603 21.1726 24.3507 21.1726C24.7412 21.1726 25.0015 21.4329 25.0015 21.8233C25.0015 22.2138 24.7412 22.4741 24.3507 22.4741Z" fill="white"/>
<path d="M42.6918 18.5564L42.0597 16.1195C41.9965 15.9321 41.9333 15.8071 41.7437 15.7446C41.6173 15.6821 41.4277 15.6196 41.2381 15.6821L36.2449 16.8693L35.5496 14.1825C35.8024 13.6827 35.9288 13.0578 35.8024 12.433C35.6128 11.8081 35.2336 11.2458 34.6648 10.8709C34.0959 10.496 33.4007 10.4335 32.7686 10.5585C32.1366 10.7459 31.5677 11.1208 31.1886 11.6832C30.8094 12.2456 30.7461 12.9329 30.8725 13.5577C30.999 14.1825 31.3782 14.6824 31.8838 14.9948L32.5791 17.6817L27.2068 18.9938C26.4484 18.369 25.4371 17.9941 24.3627 17.9941C22.7194 17.9941 21.2025 18.8688 20.3808 20.3059L20.128 20.7433L15.1979 21.9306L14.5027 19.2437C14.7555 18.7439 14.8819 18.119 14.7555 17.4942C14.5659 16.8694 14.1867 16.307 13.6178 15.9321C13.049 15.5573 12.3537 15.4947 11.6585 15.6197C10.268 15.9321 9.44631 17.3068 9.76235 18.6814C9.88876 19.3062 10.268 19.8061 10.7736 20.1185L11.4689 22.8053L6.47567 23.9926C6.15965 24.055 5.90686 24.43 6.03323 24.7424L6.66526 27.1792C6.72847 27.3667 6.79167 27.4917 6.98128 27.5541C7.10769 27.6166 7.17089 27.6166 7.2973 27.6166H7.42371L17.8522 25.1173L15.7665 29.241H14.8817C13.4912 29.241 12.3535 30.3657 12.3535 31.7403V34.8645C12.3535 35.2394 12.6063 35.4894 12.9856 35.4894H35.7389C36.1182 35.4894 36.371 35.2394 36.371 34.8645V31.7403C36.371 30.3657 35.2333 29.241 33.8428 29.241H32.958L29.4186 22.4304L42.1855 19.3062C42.5647 19.2437 42.7543 18.8688 42.6912 18.5564H42.6918ZM32.3263 12.3704C32.5159 12.058 32.7688 11.8705 33.148 11.8081C33.2744 11.8081 33.3376 11.7456 33.464 11.7456C33.7168 11.7456 33.9064 11.8081 34.096 11.9331C34.412 12.1205 34.6017 12.3705 34.6648 12.6829C34.8544 13.3702 34.412 14.0575 33.7168 14.2449C33.0215 14.4324 32.3263 13.995 32.1367 13.3077C32.0735 12.9952 32.1367 12.6204 32.3263 12.3704ZM33.4008 15.5571C33.5904 15.5571 33.78 15.5571 34.0328 15.4946C34.2224 15.4321 34.4753 15.3697 34.6649 15.2447L35.1705 17.1817L33.9064 17.4941L33.4008 15.5571ZM13.4915 20.3059L13.9971 22.2429L12.733 22.5553L12.2274 20.6183H12.2906C12.4802 20.6183 12.6698 20.6183 12.9226 20.5558C13.1123 20.4933 13.3019 20.4308 13.4915 20.3059ZM11.9746 16.9317C12.101 16.9317 12.1642 16.8693 12.2906 16.8693C12.5434 16.8693 12.7331 16.9317 12.9226 17.0567C13.2387 17.2442 13.4283 17.4941 13.4915 17.8065C13.6811 18.4939 13.2386 19.1812 12.5434 19.3686C12.2274 19.4311 11.8481 19.3686 11.5953 19.2436C11.2793 19.0562 11.0897 18.8062 11.0265 18.4938C10.9001 17.744 11.2793 17.0567 11.9746 16.9317ZM7.73983 26.3669L7.42381 25.1172L19.3692 22.243L18.6108 23.7426L7.73983 26.3669ZM35.107 31.7407V34.24H13.6177V31.7407C13.6177 31.0533 14.1865 30.491 14.8818 30.491H33.8429C34.5382 30.491 35.107 31.0533 35.107 31.7407ZM17.1571 29.2413L21.455 20.9311C22.087 19.8689 23.1615 19.244 24.3623 19.244C25.5632 19.244 26.6377 19.8689 27.2065 20.8686L31.5674 29.2416L17.1571 29.2413ZM28.8497 21.2434L28.3441 20.3061C28.2809 20.2437 28.2809 20.1812 28.2177 20.1187L40.9846 16.9945L41.3006 18.2442L28.8497 21.2434Z" fill="white"/>
</svg>
