<svg width="47" height="47" viewBox="0 0 47 47" fill="none" xmlns="http://www.w3.org/2000/svg">
<path fill-rule="evenodd" clip-rule="evenodd" d="M14.1294 22.7481C14.1294 22.1055 14.5504 21.5082 15.0718 21.2665C15.2246 21.1957 15.5322 21.1015 15.7419 21.1015L31.2124 21.1015C32.093 21.1015 32.862 21.8354 32.862 22.678C32.862 23.2362 32.7375 23.6006 32.3219 23.9839C32.046 24.2381 31.5971 24.4297 31.0657 24.4297L15.9256 24.4297C14.9045 24.4297 14.1294 23.7203 14.1294 22.7481ZM31.2854 19.9456L21.1678 19.9456L21.1678 17.7379L31.3954 17.7379C32.7207 17.7379 33.9531 18.3432 34.8505 19.2008C35.0946 19.4341 35.2352 19.5623 35.4281 19.8401C36.1906 20.9409 36.3809 21.6156 36.3809 23.0281C36.3809 23.6842 36.102 24.5564 35.869 24.9912C35.7093 25.2888 35.3338 25.8412 35.1068 26.0847C34.0952 27.1727 32.684 27.7934 31.0657 27.7934L15.9256 27.7933C12.9542 27.7933 10.6097 25.5845 10.6097 22.7831C10.6097 20.7843 11.726 19.1147 13.5303 18.252C14.0445 18.0062 14.8086 17.7379 15.5585 17.7379L19.9579 17.7379L19.9579 19.9456L15.6689 19.9456C14.9228 19.9456 14.2367 20.3531 13.7534 20.8127C12.759 21.7576 12.6547 23.2757 13.4539 24.3746C13.983 25.1022 14.8739 25.5856 15.9986 25.5856L30.992 25.5856C31.9203 25.5856 32.6607 25.2757 33.1275 24.8237C33.3953 24.5655 33.5845 24.3801 33.7667 24.0332C34.2446 23.1245 34.1724 21.938 33.5325 21.126C33.3109 20.8445 33.3033 20.8153 33.0404 20.6156C32.9564 20.5517 32.9308 20.5258 32.833 20.4633C32.3803 20.1756 31.9054 19.9456 31.2854 19.9456ZM31.4321 16.582L19.9946 16.582L19.9946 14.34L30.4427 14.34C32.7375 14.34 34.0849 14.6554 35.796 15.6346C36.1612 15.8434 36.7736 16.2713 37.0685 16.5557C37.8796 17.3374 38.4587 17.9164 38.9966 18.9873C39.7316 20.4517 39.9005 21.4064 39.9005 23.0986C39.9005 24.7247 39.1964 26.4702 38.2563 27.6933C38.1795 27.7934 38.1138 27.8733 38.0362 27.9733C37.9411 28.0946 37.8838 28.1471 37.7852 28.2588C37.4995 28.5816 37.033 29.0354 36.6903 29.28C35.733 29.9638 35.0732 30.3636 33.9199 30.7316C33.0848 30.9982 32.0583 31.1562 31.102 31.1562L15.8519 31.1562C14.5439 31.1562 13.1258 30.839 12.2593 30.4206C11.7864 30.1924 11.2798 29.9755 10.8714 29.6798C10.0868 29.1117 10.0608 29.1205 9.42814 28.4673C9.33454 28.3702 9.24362 28.3041 9.15423 28.2034C8.60334 27.5805 8.24004 26.9909 7.88475 26.2632C7.03283 24.5155 6.88957 22.6134 7.33272 20.7372C7.53367 19.8854 7.90805 19.1483 8.32523 18.4279C8.7233 17.7415 9.29099 17.161 9.86709 16.6079C10.9929 15.5269 12.8847 14.7014 14.443 14.4648C15.57 14.2936 17.5523 14.34 18.7847 14.34L18.7847 16.582L15.5585 16.582C14.3761 16.582 13.0096 17.0899 12.0657 17.7631C11.9793 17.8248 11.9392 17.8587 11.8613 17.9183C8.77869 20.2742 8.56361 24.509 11.3341 27.1712L11.7574 27.5374C12.0614 27.7846 12.3694 27.9748 12.7239 28.1552C13.8386 28.7229 14.676 28.9492 16.0353 28.9492L31.0287 28.9492C32.0896 28.9492 32.9281 28.7473 33.6899 28.4443C35.1615 27.8583 36.243 26.7952 36.9432 25.4571C37.8001 23.82 37.8299 21.72 36.9803 20.1085C36.8095 19.7854 36.6273 19.4509 36.4126 19.1797L35.7127 18.3768L34.8711 17.7094C33.8847 17.0723 32.6764 16.582 31.4321 16.582ZM31.5421 13.2187L15.4485 13.2187C14.1351 13.2187 12.4928 13.7018 11.587 14.1176C11.1056 14.3385 10.5077 14.6915 10.0669 14.977C9.22223 15.5243 8.23965 16.5229 7.67731 17.2826C7.38506 17.6777 7.01182 18.2939 6.79597 18.7529C5.57693 21.3469 5.55477 24.2154 6.80896 26.8007C7.22423 27.6561 7.88475 28.5878 8.5659 29.2913C9.4503 30.2052 10.6842 31.0142 11.8574 31.5056C13.0356 31.9992 14.3066 32.3125 15.9986 32.3125L30.992 32.3125C32.867 32.3125 34.9395 31.7992 36.3446 30.9109C36.8993 30.5604 36.8897 30.5852 37.4395 30.1709C37.5747 30.0686 37.6458 29.9832 37.7684 29.8897C38.6971 29.1814 39.6468 27.8992 40.1698 26.8591C40.4258 26.3498 40.6691 25.6973 40.8242 25.1022C41.0451 24.2523 41.0764 23.8821 41.1092 22.992C41.1211 22.6652 41.144 22.2483 41.0947 21.9219C40.859 20.3604 40.6886 19.6444 39.9498 18.2516L39.4826 17.5068C39.1051 16.9679 39.0153 16.9117 38.675 16.4918C38.571 16.3633 38.4927 16.3137 38.3816 16.1768C38.202 15.954 37.6863 15.54 37.4227 15.341C36.7599 14.8401 36.3056 14.5495 35.5255 14.1768C34.5785 13.7229 32.9396 13.2187 31.5421 13.2187Z" fill="white"/>
</svg>
