<svg width="49" height="48" viewBox="0 0 49 48" fill="none" xmlns="http://www.w3.org/2000/svg">
<path d="M37.5769 37.9943H25.7038V32.1604H35.6053C35.8321 32.1604 36.0164 31.9773 36.0164 31.7511V13.1444C36.0164 12.9181 35.8321 12.7351 35.6053 12.7351H25.7038V12.0123C25.7038 10.8764 24.7754 9.95269 23.6346 9.95269H23.3589C22.2181 9.95269 21.2898 10.8764 21.2898 12.0123V12.7351H11.3882C11.1615 12.7351 10.9772 12.9181 10.9772 13.1444V31.7511C10.9772 31.9773 11.1615 32.1604 11.3882 32.1604H21.2898V37.9943H9.41669C9.18993 37.9943 9.00566 38.1773 9.00566 38.4036C9.00566 38.6298 9.18993 38.8129 9.41669 38.8129H37.5769C37.8037 38.8129 37.9879 38.6298 37.9879 38.4036C37.9879 38.1773 37.8037 37.9943 37.5769 37.9943ZM22.1118 12.0123C22.1118 11.3282 22.6712 10.7713 23.3589 10.7713H23.6346C24.3224 10.7713 24.8817 11.3282 24.8817 12.0123V12.7351H22.1118V12.0123ZM11.7993 13.5537H35.1943V31.3418H11.7993V13.5537ZM22.1118 32.1604H24.8817V37.9943H22.1118V32.1604Z" fill="white" stroke="white" stroke-width="0.1"/>
<path d="M16.3963 22.1245L16.3963 22.1245C15.7962 21.6792 15.4527 21.0002 15.4527 20.261C15.4527 18.9783 16.5014 17.9344 17.7907 17.9344C19.0799 17.9344 20.1286 18.9783 20.1286 20.261C20.1286 20.4872 20.3129 20.6703 20.5396 20.6703H26.4597C26.6865 20.6703 26.8708 20.4872 26.8708 20.261C26.8708 18.9783 27.9194 17.9344 29.2089 17.9344C30.4981 17.9344 31.5468 18.9783 31.5468 20.261C31.5468 21.0002 31.2031 21.6792 30.6033 22.1245C30.4991 22.2018 30.4378 22.3233 30.4378 22.4527C30.4378 22.5819 30.4991 22.7036 30.6031 22.7807C31.2031 23.2263 31.5468 23.9055 31.5468 24.6448C31.5468 25.9272 30.4982 26.9712 29.2089 26.9712C27.9194 26.9712 26.8708 25.9272 26.8708 24.6448V24.6258C26.8708 24.3996 26.6865 24.2165 26.4597 24.2165H20.5396C20.3096 24.2165 20.1286 24.4219 20.1286 24.6448C20.1286 25.9272 19.0799 26.9712 17.7907 26.9712C16.5014 26.9712 15.4527 25.9272 15.4527 24.6448C15.4527 23.9055 15.7964 23.2263 16.3963 22.7807C16.5003 22.7036 16.5615 22.5819 16.5615 22.4527C16.5615 22.3233 16.5002 22.2018 16.3963 22.1245ZM29.2089 27.7898C30.9511 27.7898 32.3689 26.3792 32.3689 24.6448C32.3689 23.8124 32.0471 23.0363 31.4722 22.4527C32.0471 21.8693 32.3689 21.0933 32.3689 20.261C32.3689 18.5265 30.9512 17.1158 29.2089 17.1158C27.6058 17.1158 26.2775 18.3097 26.0753 19.8517H20.924C20.7218 18.3097 19.3938 17.1158 17.7907 17.1158C16.0484 17.1158 14.6307 18.5265 14.6307 20.261C14.6307 21.0933 14.9524 21.8693 15.5271 22.4527C14.9524 23.0363 14.6307 23.8124 14.6307 24.6448C14.6307 26.3792 16.0484 27.7898 17.7907 27.7898C19.3953 27.7898 20.7242 26.5936 20.9245 25.0351H26.0729C26.2667 26.5861 27.5992 27.7898 29.2089 27.7898Z" fill="white" stroke="white" stroke-width="0.1"/>
</svg>
