<svg width="47" height="47" viewBox="0 0 47 47" fill="none" xmlns="http://www.w3.org/2000/svg">
<path d="M34.7437 29.0798C34.749 29.0586 34.7531 29.0371 34.756 29.0155V27.3893C34.7541 26.5662 34.5015 25.7633 34.0321 25.0881C33.5627 24.4128 32.8989 23.8974 32.1294 23.6109L25.1682 21.0438C24.5555 20.8182 24.0266 20.4096 23.6527 19.8732C23.2787 19.3368 23.0778 18.6983 23.0769 18.0438V12.4075V12.3992V11.3808C23.0769 11.2168 23.012 11.0595 22.8963 10.9435C22.7806 10.8275 22.6238 10.7623 22.4602 10.7623H22.1485C21.574 10.7643 21.011 10.9246 20.5211 11.2256C20.0312 11.5267 19.6332 11.9569 19.3706 12.4693H12.8041C12.6405 12.4693 12.4837 12.5345 12.368 12.6505C12.2523 12.7664 12.1874 12.9238 12.1874 13.0878V18.7447C11.1274 20.0199 10.5471 21.6275 10.5476 23.2876V26.0006C10.5494 26.617 10.7077 27.2228 11.0077 27.7608C11.3077 28.2989 11.7394 28.7514 12.2622 29.0757C11.7252 29.4399 11.2869 29.9323 10.9869 30.5085C10.6869 31.0848 10.5344 31.7269 10.5433 32.3769C10.5523 33.0269 10.7222 33.6645 11.038 34.2323C11.3537 34.8 11.8053 35.2802 12.3521 35.6294C12.8988 35.9787 13.5236 36.1861 14.1702 36.233C14.8168 36.2799 15.4649 36.1649 16.0562 35.8982C16.6474 35.6315 17.1632 35.2216 17.5572 34.7054C17.9511 34.1891 18.2109 33.5827 18.3131 32.9407H19.6494C19.7936 33.8609 20.2608 34.6991 20.9668 35.3045C21.6728 35.9098 22.5712 36.2425 23.5 36.2425C24.4289 36.2425 25.3273 35.9098 26.0333 35.3045C26.7393 34.6991 27.2065 33.8609 27.3507 32.9407H28.687C28.7899 33.5814 29.0499 34.1864 29.4435 34.7014C29.8372 35.2164 30.3523 35.6253 30.9425 35.8913C31.5327 36.1574 32.1796 36.2722 32.8251 36.2256C33.4705 36.179 34.0943 35.9723 34.6404 35.6242C35.1865 35.2761 35.6378 34.7974 35.9538 34.2311C36.2698 33.6649 36.4406 33.0287 36.4509 32.3799C36.4611 31.7311 36.3105 31.0899 36.0125 30.5139C35.7145 29.9379 35.2785 29.4451 34.7437 29.0798ZM20.2349 13.9174C20.2345 13.4614 20.3959 13.0201 20.6903 12.6726C20.9848 12.325 21.3929 12.094 21.8418 12.0207V15.0916H20.2349V13.9174ZM13.2646 19.3871C13.3657 19.2738 13.4214 19.1269 13.4209 18.9748V13.7071H19.0227C19.0178 13.778 19.0014 13.8456 19.0014 13.9174V15.7093C19.0014 15.8733 19.0663 16.0306 19.182 16.1466C19.2977 16.2626 19.4546 16.3277 19.6181 16.3277H21.8434V18.0438C21.8434 18.1724 21.8623 18.2978 21.873 18.4248H21.0013C20.8378 18.4248 20.6809 18.4899 20.5652 18.6059C20.4495 18.7219 20.3846 18.8792 20.3846 19.0433C20.3846 19.2073 20.4495 19.3646 20.5652 19.4806C20.6809 19.5966 20.8378 19.6617 21.0013 19.6617H22.1633C22.3358 20.0979 22.5755 20.5042 22.8738 20.8657L21.7225 21.2425C21.5669 21.2934 21.4378 21.4041 21.3636 21.5504C21.2895 21.6967 21.2763 21.8666 21.327 22.0226C21.3777 22.1787 21.4881 22.3081 21.634 22.3825C21.7799 22.4569 21.9493 22.4701 22.1049 22.4193L23.961 21.8132C24.2092 21.9703 24.4726 22.1018 24.7471 22.2057L31.7067 24.7728C32.2425 24.9666 32.7052 25.3224 33.0308 25.7911C33.3565 26.2597 33.5291 26.8181 33.5249 27.3893V28.397H32.5694C32.5587 28.397 32.548 28.397 32.5373 28.397C32.5266 28.397 32.5167 28.397 32.506 28.397H23.5317C23.5202 28.397 23.5103 28.397 23.4996 28.397C23.4889 28.397 23.4791 28.397 23.4676 28.397H17.9997C18.1271 27.9192 18.1926 27.427 18.1946 26.9325C18.1927 25.3976 17.5837 23.9262 16.5013 22.841C15.419 21.7558 13.9515 21.1453 12.4209 21.1436C12.3387 21.1436 12.263 21.1526 12.1832 21.1559C12.436 20.5066 12.8022 19.9076 13.2646 19.3871ZM11.7844 26.0006V23.2876C11.7862 22.9966 11.8095 22.706 11.8543 22.4185C12.4938 22.3345 13.1438 22.3886 13.7608 22.5773C14.3777 22.7659 14.9472 23.0847 15.4312 23.5122C15.9152 23.9398 16.3024 24.4661 16.5668 25.056C16.8312 25.6459 16.9668 26.2857 16.9644 26.9325C16.9635 27.431 16.8801 27.9259 16.7177 28.397H14.4973C14.4866 28.397 14.4768 28.397 14.4661 28.397C14.4554 28.397 14.4447 28.397 14.434 28.397H14.17C13.5366 28.3959 12.9295 28.1431 12.4817 27.6939C12.0339 27.2447 11.782 26.6358 11.7811 26.0006H11.7844ZM14.4661 35.0056C13.7557 35.0099 13.0728 34.731 12.5675 34.2303C12.0622 33.7296 11.7759 33.0482 11.7717 32.3359C11.7674 31.6235 12.0455 30.9387 12.5448 30.432C13.0441 29.9253 13.7237 29.6382 14.434 29.634H14.4973C15.2077 29.6381 15.8873 29.9251 16.3867 30.4317C16.886 30.9383 17.1643 31.6231 17.1601 32.3354C17.156 33.0478 16.8698 33.7293 16.3646 34.23C15.8594 34.7308 15.1764 35.0097 14.4661 35.0056ZM19.6518 31.7071H18.3139C18.1924 30.9307 17.8398 30.2092 17.3024 29.6373H20.6601C20.1232 30.2083 19.7707 30.9286 19.6486 31.7038L19.6518 31.7071ZM23.5029 35.0056C22.7933 35.0056 22.1126 34.7237 21.6099 34.2215C21.1071 33.7194 20.8232 33.0379 20.8204 32.3264V32.3156C20.8219 31.6096 21.1004 30.9324 21.5957 30.4306C22.0911 29.9288 22.7635 29.6426 23.4676 29.634H23.5317C24.2421 29.6382 24.9216 29.9253 25.4209 30.432C25.9202 30.9387 26.1983 31.6235 26.1941 32.3359C26.1898 33.0482 25.9036 33.7296 25.3982 34.2303C24.8929 34.731 24.21 35.0099 23.4996 35.0056H23.5029ZM28.6895 31.7071H27.3515C27.2301 30.9307 26.8775 30.2092 26.34 29.6373H29.6977C29.1609 30.2083 28.8083 30.9286 28.6862 31.7038L28.6895 31.7071ZM32.5406 35.0056C31.8366 35.0046 31.1613 34.7258 30.6605 34.2296C30.1598 33.7333 29.8739 33.0595 29.8646 32.3536C29.8646 32.342 29.8704 32.333 29.8704 32.3222C29.8704 32.3115 29.8646 32.3008 29.8638 32.2893C29.8719 31.588 30.1532 30.9177 30.6475 30.4215C31.1418 29.9254 31.81 29.6427 32.5093 29.634H32.5727C33.283 29.6382 33.9626 29.9253 34.4619 30.432C34.9612 30.9387 35.2393 31.6235 35.235 32.3359C35.2308 33.0482 34.9445 33.7296 34.4392 34.2303C33.9339 34.731 33.2509 35.0099 32.5406 35.0056Z" fill="white"/>
</svg>
