<svg width="48" height="48" viewBox="0 0 48 48" fill="none" xmlns="http://www.w3.org/2000/svg">
<path d="M36.1098 22.2035C36.6732 22.2035 37.1584 21.8583 37.341 21.3197C37.5236 20.7811 37.3567 20.2111 36.908 19.8659L24.7942 10.406C24.3246 10.0399 23.6621 10.0399 23.1926 10.406L11.0683 19.8607C10.6196 20.2111 10.4527 20.7811 10.6353 21.3145C10.8179 21.8479 11.3031 22.1982 11.8665 22.1982H23.2813V28.1911H16.9426C16.5096 28.1911 16.1601 28.5415 16.1601 28.9755C16.1601 29.4096 16.5096 29.7599 16.9426 29.7599H21.0745C21.304 30.8895 22.17 31.7889 23.2865 32.0609V36.3019H20.8919C20.4589 36.3019 20.1093 36.6523 20.1093 37.0863C20.1093 37.5203 20.4589 37.8707 20.8919 37.8707H24.0534C24.0586 37.8707 24.0638 37.8707 24.069 37.8707C24.0742 37.8707 24.0794 37.8707 24.0847 37.8707H27.0896C27.5227 37.8707 27.8722 37.5203 27.8722 37.0863C27.8722 36.6523 27.5227 36.3019 27.0896 36.3019H24.8516V32.0242C25.8897 31.7105 26.6879 30.8424 26.9071 29.7599H31.0389C31.4719 29.7599 31.8214 29.4096 31.8214 28.9755C31.8214 28.5415 31.4719 28.1911 31.0389 28.1911H24.8516V22.2035H36.1098ZM23.9908 30.5862C23.4273 30.5862 22.9369 30.2463 22.7126 29.7652H24.0586C24.0638 29.7652 24.0638 29.7652 24.069 29.7652C24.0742 29.7652 24.0742 29.7652 24.0794 29.7652H25.2689C25.0446 30.2463 24.5542 30.5862 23.9908 30.5862ZM24.069 20.6294C24.0586 20.6294 24.0481 20.6346 24.0377 20.6346H19.8328L23.9908 12.4925L28.1487 20.6294H24.1003C24.0899 20.6294 24.0794 20.6294 24.069 20.6294ZM29.9068 20.6346L26.2967 13.5697L35.3533 20.6346H29.9068ZM21.6849 13.5697L18.0747 20.6346H12.6282L21.6849 13.5697Z" fill="white"/>
<path d="M12.3392 37.7241C12.4279 37.7555 12.5166 37.7711 12.6053 37.7711C12.9287 37.7711 13.2261 37.5724 13.3409 37.2534L14.4365 34.1942H15.6364L16.7319 37.2534C16.8467 37.5724 17.1493 37.7711 17.4675 37.7711C17.5562 37.7711 17.6449 37.7555 17.7336 37.7241C18.1405 37.5777 18.3544 37.1279 18.2083 36.72L17.3006 34.189H18.4379C18.8709 34.189 19.2204 33.8386 19.2204 33.4046C19.2204 32.9706 18.8709 32.6202 18.4379 32.6202H12.2297C12.0575 32.6202 11.9167 32.479 11.9167 32.3064V26.8417C11.9167 26.4077 11.5671 26.0573 11.1341 26.0573C10.7011 26.0573 10.3516 26.4077 10.3516 26.8417V32.3064C10.3516 33.3471 11.1967 34.189 12.2297 34.189H12.7722L11.8645 36.72C11.7184 37.1332 11.9323 37.5829 12.3392 37.7241Z" fill="white"/>
<path d="M37.6423 32.3064V26.8417C37.6423 26.4077 37.2928 26.0573 36.8598 26.0573C36.4267 26.0573 36.0772 26.4077 36.0772 26.8417V32.3064C36.0772 32.479 35.9363 32.6202 35.7642 32.6202H29.556C29.123 32.6202 28.7734 32.9706 28.7734 33.4046C28.7734 33.8386 29.123 34.189 29.556 34.189H30.6933L29.7855 36.72C29.6395 37.1279 29.8534 37.5777 30.2603 37.7241C30.349 37.7555 30.4377 37.7711 30.5263 37.7711C30.8498 37.7711 31.1472 37.5724 31.2619 37.2534L32.3575 34.1942H33.5574L34.653 37.2534C34.7677 37.5724 35.0703 37.7711 35.3886 37.7711C35.4773 37.7711 35.5659 37.7555 35.6546 37.7241C36.0616 37.5777 36.2755 37.1279 36.1294 36.72L35.2216 34.189H35.7642C36.8024 34.189 37.6423 33.3471 37.6423 32.3064Z" fill="white"/>
</svg>
