<svg width="48" height="48" viewBox="0 0 48 48" fill="none" xmlns="http://www.w3.org/2000/svg">
<path d="M38.5015 13.5025H15.3855C14.3629 13.5025 13.5304 14.335 13.5304 15.3576V24.3705C13.5304 25.3931 14.3629 26.2256 15.3855 26.2256H23.3807V30.0245C23.2407 30.1445 23.1132 30.272 22.9995 30.4071H13.5977V28.5057C13.5977 27.2331 12.5627 26.1981 11.2901 26.1981H9.50002C9.22376 26.1981 9 26.4219 9 26.6981V38.6213C9 38.8975 9.22376 39.1213 9.50002 39.1213H11.2901C12.5627 39.1213 13.5977 38.0862 13.5977 36.8137V34.9111H22.9944C23.6469 35.6837 24.6132 36.1412 25.6357 36.1412C27.5546 36.1412 29.1159 34.5799 29.1159 32.661C29.1159 31.6385 28.6559 30.6684 27.8858 30.0159V26.2243H34.5335C34.8098 26.2243 35.0336 26.0006 35.0336 25.7243V23.6092H37.0087C37.2849 23.6092 37.5087 23.3854 37.5087 23.1092V17.9915L38.8537 16.6452C38.9475 16.5514 39 16.4239 39 16.2914V14C39 13.7238 38.7762 13.5 38.5 13.5L38.5015 13.5025ZM26.8859 29.4095C26.0996 29.1045 25.1733 29.1033 24.3808 29.412V26.2281H26.8859V29.4095ZM11.2902 38.1236H10.0002V27.2005H11.2902C12.0103 27.2005 12.5978 27.7867 12.5978 28.508V30.8994C12.5978 30.9031 12.5953 30.9056 12.5953 30.9094V34.4145C12.5953 34.4183 12.5978 34.4208 12.5978 34.4245V36.8172C12.5978 37.5372 12.0115 38.1247 11.2902 38.1247V38.1236ZM13.5978 33.9134V31.4083H22.3883C22.3733 31.4483 22.3608 31.4908 22.3471 31.5308C22.3371 31.5596 22.3271 31.5883 22.3183 31.6171C22.2708 31.7683 22.2333 31.9221 22.2071 32.0796C22.2021 32.1058 22.1996 32.1321 22.1958 32.1583C22.1721 32.3246 22.1558 32.4921 22.1558 32.6634C22.1558 32.8334 22.1708 32.9996 22.1946 33.1634C22.1983 33.1909 22.2008 33.2184 22.2058 33.2446C22.2321 33.3997 22.2683 33.5509 22.3158 33.6997C22.3258 33.7309 22.3358 33.7622 22.3471 33.7934C22.3608 33.8334 22.3721 33.8734 22.3871 33.9122L13.5978 33.9134ZM28.116 32.6634C28.116 34.0309 27.0034 35.1435 25.6359 35.1435C24.8433 35.1435 24.0958 34.761 23.632 34.1147C23.3208 33.6972 23.1557 33.1947 23.1557 32.6634C23.1557 32.1284 23.3208 31.6246 23.6408 31.1946C23.7808 30.9933 23.9658 30.8083 24.177 30.6558C25.0046 30.0483 26.1759 30.0383 27.0072 30.6033C27.0347 30.622 27.066 30.637 27.0935 30.657C27.7435 31.1283 28.1173 31.8596 28.1173 32.6621L28.116 32.6634ZM36.5091 18.9939V22.6117H35.034V20.4691L36.5091 18.9939ZM38.0016 16.0875L34.1813 19.9079C34.0875 20.0016 34.035 20.1291 34.035 20.2616V25.2257H15.3855C14.9142 25.2257 14.5304 24.842 14.5304 24.3707V15.3578C14.5304 14.8865 14.9142 14.5027 15.3855 14.5027H38.0016L38.0016 16.0875Z" fill="white"/>
<path d="M17.7508 19.4702C18.7646 19.4702 19.5896 18.6452 19.5896 17.6314C19.5896 16.6176 18.7646 15.7925 17.7508 15.7925C16.737 15.7925 15.9119 16.6176 15.9119 17.6314C15.9119 18.6452 16.737 19.4702 17.7508 19.4702ZM17.7508 16.7926C18.2133 16.7926 18.5896 17.1689 18.5896 17.6314C18.5896 18.0939 18.2133 18.4702 17.7508 18.4702C17.2883 18.4702 16.912 18.0939 16.912 17.6314C16.912 17.1689 17.2883 16.7926 17.7508 16.7926Z" fill="white"/>
</svg>
