<svg width="23" height="22" viewBox="0 0 23 22" fill="currentColor" xmlns="http://www.w3.org/2000/svg">
  <path d="M22.0285 11.0006C22.0285 5.27819 17.1449 0.623535 11.1411 0.623535C5.13725 0.623535 0.253662 5.27819 0.253662 11.0006C0.253662 12.6769 0.68286 14.3407 1.4968 15.8149L0.76661 20.6803L5.21202 19.7037C6.97729 20.7987 9.02396 21.3762 11.1411 21.3762C17.145 21.3775 22.0285 16.7229 22.0285 11.0006ZM5.22904 9.10103C4.67945 6.47934 6.21702 5.5888 7.18536 5.29186C7.58447 5.17087 8.02285 5.36544 8.19035 5.73836L9.17179 7.92226C9.36284 8.34631 9.25554 8.8477 8.90353 9.16699L8.17987 9.82802C8.93754 12.2065 11.6803 13.5797 12.1764 13.8093L12.9066 13.1196C13.222 12.819 13.697 12.7167 14.1196 12.8576L16.6125 13.6845C16.9737 13.8055 17.2092 14.1448 17.1687 14.4953C17.0483 15.5492 16.267 16.1391 15.635 16.4522C15.2424 16.6442 14.8014 16.7428 14.3526 16.7428C14.1786 16.7428 14.0071 16.7266 13.8331 16.6979C6.49832 15.4456 5.23842 9.16456 5.22904 9.10103Z" fill="white"/>
  </svg>
  