<svg width="119" height="37" viewBox="0 0 119 37" fill="none" xmlns="http://www.w3.org/2000/svg">
<path d="M84.5257 18.6901C84.5257 18.393 84.4766 18.0958 84.3784 17.8482C83.8381 15.5208 81.628 9.47937 73.1803 9.47937C62.6699 9.47937 61.7367 18.7396 61.7367 18.7396V36.6658H67.9251V17.0559C67.9251 17.0559 68.0233 10.4698 74.31 10.4698C74.31 10.4698 78.6811 10.1726 78.6811 13.8371L78.7794 18.7891V18.8386C78.7794 20.4233 80.0563 21.7603 81.6771 21.7603C83.2488 21.7603 84.5749 20.4728 84.5749 18.8386C84.5257 18.7891 84.5257 18.7891 84.5257 18.6901C84.5257 18.7396 84.5257 18.7396 84.5257 18.6901Z" fill="white"/>
<path d="M8.49678 9.92505C4.02738 10.8659 2.21015 14.4314 1.47343 17.155C1.0314 18.8882 2.30838 20.6214 4.12561 20.6214C5.64815 20.6214 6.87601 19.3338 6.8269 17.7987C6.77778 16.2141 6.72866 14.2828 6.72866 13.0448C6.72866 10.6679 9.33173 10.1727 10.8543 10.2717C12.4259 10.3707 13.752 10.3707 15.7657 11.9554C17.7794 13.54 17.9758 17.6997 17.9758 17.6997V21.2651C17.0427 21.2651 13.7029 21.4137 9.28261 22.7012C4.07649 24.2363 0 26.4152 0 31.0701C0 35.7249 4.27295 36.7154 6.8269 36.6163C9.28261 36.5173 15.7166 35.8735 17.9267 27.7027V36.6163H23.7222C23.7222 36.6163 23.7222 28.3465 23.7222 19.5814C23.8205 10.8659 16.1095 8.38993 8.49678 9.92505ZM18.025 26.4152C17.3865 28.9407 15.5201 34.2394 10.6578 34.1403C4.32206 33.9918 5.94283 27.3561 7.95652 25.5238C9.97021 23.6916 12.1312 22.2555 18.025 21.8594V26.4152Z" fill="white"/>
<path d="M103.68 9.92505C99.211 10.8659 97.3937 14.4314 96.657 17.155C96.215 18.8882 97.492 20.6214 99.3092 20.6214C100.832 20.6214 102.06 19.3338 102.01 17.7987C101.961 16.2141 101.912 14.2828 101.912 13.0448C101.912 10.6679 104.515 10.1727 106.038 10.2717C107.61 10.3707 108.936 10.3707 110.949 11.9554C112.963 13.54 113.159 17.6997 113.159 17.6997V21.2651C112.226 21.2651 108.886 21.4137 104.466 22.7012C99.2601 24.2363 95.1836 26.4152 95.1836 31.0701C95.1836 35.7249 99.4565 36.7154 102.01 36.6163C104.466 36.5173 110.9 35.8735 113.11 27.7027V36.6163H118.906C118.906 36.6163 118.906 28.3465 118.906 19.5814C119.004 10.8659 111.293 8.38993 103.68 9.92505ZM113.159 26.4152C112.521 28.9407 110.655 34.2394 105.792 34.1403C99.4565 33.9918 101.077 27.3561 103.091 25.5238C105.105 23.6916 107.266 22.2555 113.159 21.8594V26.4152Z" fill="white"/>
<path d="M58.2496 9.47937H52.0612V36.6658H58.2496V9.47937Z" fill="white"/>
<path d="M92.9734 9.47937H86.785V36.6658H92.9734V9.47937Z" fill="white"/>
<path d="M47.1988 24.4344C45.6272 24.4344 44.3011 25.7219 44.3011 27.3561V27.4056L44.2029 32.3576C44.2029 35.9726 39.8317 35.725 39.8317 35.725C33.5451 35.725 33.4468 29.1388 33.4468 29.1388V9.47937H27.2584V27.4056C27.2584 27.4056 28.2407 36.6658 38.7021 36.6658C47.248 36.6658 49.409 30.5254 49.9001 28.2474C49.9984 27.9998 50.0475 27.7522 50.0475 27.4551C50.0475 27.4056 50.0475 27.4056 50.0475 27.4056V27.3561C50.0966 25.7714 48.7705 24.4344 47.1988 24.4344Z" fill="white"/>
<path d="M57.1915 6.2096C58.3232 5.06862 58.3232 3.21874 57.1915 2.07776C56.0599 0.936788 54.2252 0.936785 53.0935 2.07776C51.9619 3.21874 51.9619 5.06862 53.0936 6.2096C54.2252 7.35057 56.0599 7.35057 57.1915 6.2096Z" fill="white"/>
<path d="M91.9102 6.19775C93.0418 5.05677 93.0418 3.20689 91.9102 2.06591C90.7785 0.924936 88.9438 0.924934 87.8122 2.06591C86.6806 3.20688 86.6806 5.05678 87.8122 6.19775C88.9438 7.33873 90.7786 7.33872 91.9102 6.19775Z" fill="white"/>
</svg>
