<svg width="125" height="34" viewBox="0 0 125 34" fill="none" xmlns="http://www.w3.org/2000/svg">
<path d="M0 33.0996L3.8593 31.1935L14.3678 5.90401L12.5544 3.39365L16.9251 2.64984L29.0145 31.1935L32.5948 33.0531H20.6914L25.1552 31.24L21.3889 22.3608H8.55556L4.97524 31.1935L9.718 33.0531H0V33.0996ZM8.88104 21.5705H21.1099L15.1117 7.25217H14.6932L8.88104 21.5705Z" fill="white"/>
<path d="M36.8725 31.4725V3.905L33.7107 3.1147L40.0809 0V31.4725L43.0567 33.0995H33.9432L36.8725 31.4725Z" fill="white"/>
<path d="M47.846 31.4725V15.9454L44.6842 15.1087L51.0544 12.0404V31.4725L54.1697 33.0996H44.9632L47.846 31.4725ZM47.0091 7.20568V2.64984H51.2404V7.20568H47.0091Z" fill="white"/>
<path d="M59.0055 31.4724V15.9454L55.8436 15.1086L62.2138 12.0404V15.527C64.3527 14.1789 67.747 12.0404 70.0254 12.0404C73.2802 12.0404 75.7446 14.4113 75.7446 18.1304V31.4724L78.7204 33.0995H69.3744L72.5363 31.4724V18.3163C72.5363 15.8059 70.6764 13.714 68.3515 13.714C66.5381 13.714 64.2597 14.8762 62.2138 16.1314V31.5189L65.3756 33.146H56.0296L59.0055 31.4724Z" fill="white"/>
<path d="M97.5054 11.9474L101.644 12.5053L89.8333 20.8732L103.411 33.0995H98.6214L86.439 21.7564V31.4725L89.4149 33.0995H80.3013L83.2307 31.4725V3.905L80.0688 3.1147L86.439 0V19.4785L97.5054 11.9474Z" fill="white"/>
<path d="M105.131 29.334C105.131 25.2895 112.524 22.6397 118.243 20.3618V18.4093C118.243 15.5735 116.244 13.3421 113.408 13.3421C112.385 13.3421 111.501 13.5745 110.525 14.1789C108.153 15.62 109.269 20.2688 106.712 20.2688C105.736 20.2688 105.131 19.525 105.131 18.5023C105.131 15.527 112.431 12.0869 115.361 12.0869C118.941 12.0869 121.452 14.5973 121.452 18.2233V30.6357L124.474 33.5644L118.336 33.6109V28.4972C115.872 31.1935 113.129 33.6109 110.013 33.6109C107.13 33.6109 105.131 31.9373 105.131 29.334ZM118.243 27.6604V20.9661C113.036 23.1046 108.386 25.1966 108.386 28.4507C108.386 30.4032 109.874 31.6584 111.873 31.6584C114.152 31.7049 116.244 29.7989 118.243 27.6604Z" fill="white"/>
</svg>
