<svg width="139" height="36" viewBox="0 0 139 36" fill="none" xmlns="http://www.w3.org/2000/svg">
<path d="M9.94686 34.8307V3.71147C9.94686 2.96918 9.31803 2.39818 8.63204 2.39818C7.88889 2.39818 7.31723 2.96918 7.31723 3.71147V34.8307H4.97343V3.71147C4.97343 2.96918 4.40177 2.39818 3.65862 2.39818C2.91546 2.39818 2.3438 2.96918 2.3438 3.71147V34.8307H0V3.71147C0 1.71299 1.65781 0 3.71578 0C4.63043 0 5.71659 0.456798 6.23108 1.02779C6.74557 0.456798 7.77455 0 8.74637 0C10.7472 0 12.4622 1.65589 12.4622 3.71147V34.8307H9.94686Z" fill="white"/>
<path d="M23.4379 35.1733C21.4371 35.1733 19.7222 33.5174 19.7222 31.4619V3.71147C19.7222 1.71299 21.38 0 23.4379 0C25.4959 0 27.1537 1.65589 27.1537 3.71147V31.4619C27.0966 33.4603 25.4388 35.1733 23.4379 35.1733ZM24.7528 3.71147C24.7528 2.96918 24.1811 2.39818 23.4379 2.39818C22.6948 2.39818 22.1231 2.96918 22.1231 3.71147V31.4619C22.1231 32.2041 22.6948 32.7751 23.4379 32.7751C24.1811 32.7751 24.7528 32.2041 24.7528 31.4619V3.71147Z" fill="white"/>
<path d="M53.0499 2.74074V34.8307H50.7061V2.74074H48.3623V0.399658H55.3937V2.74074H53.0499Z" fill="white"/>
<path d="M65.1119 35.1733C63.1111 35.1733 61.3962 33.5174 61.3962 31.4619V24.4957H63.74V31.4619C63.74 32.2041 64.3116 32.7751 65.0548 32.7751C65.7979 32.7751 66.3696 32.2041 66.3696 31.4619V21.7549L61.339 13.3613V3.71147C61.339 1.71299 62.9968 0 65.0548 0C67.1127 0 68.7706 1.65589 68.7706 3.71147V10.6776H66.4268V3.71147C66.4268 2.96918 65.8551 2.39818 65.1119 2.39818C64.3688 2.39818 63.7971 2.96918 63.7971 3.71147V12.7903L68.8277 21.1268V31.5189C68.8277 33.4603 67.1127 35.1733 65.1119 35.1733Z" fill="white"/>
<path d="M75.8591 34.8308V0.342651H81.4042V2.68373H78.2601V15.5311H81.4042V17.8722H78.2601V32.3755H81.4042V34.7166H75.8591V34.8308Z" fill="white"/>
<path d="M93.2375 34.8308V20.9556C93.2375 20.1562 92.6087 19.6423 91.9227 19.6423H90.6078V34.8308H88.264V0.342651H91.9798C93.9806 0.342651 95.6956 1.99854 95.6956 4.05412V15.9308C95.6956 16.8444 95.2954 17.758 94.6666 18.4432C95.3526 19.0713 95.6956 20.042 95.6956 20.9556V34.8308H93.2375ZM93.2375 4.05412C93.2375 3.31183 92.6658 2.74084 91.9227 2.74084H90.6078V17.2441H91.9227C92.6658 17.2441 93.2375 16.6731 93.2375 15.9308V4.05412Z" fill="white"/>
<path d="M108.043 34.8308V20.9556C108.043 20.1562 107.415 19.6423 106.729 19.6423H105.414V34.8308H103.07V0.342651H106.786C108.787 0.342651 110.502 1.99854 110.502 4.05412V15.9308C110.502 16.8444 110.101 17.758 109.473 18.4432C110.159 19.0713 110.502 20.042 110.502 20.9556V34.8308H108.043ZM108.043 4.05412C108.043 3.31183 107.472 2.74084 106.729 2.74084H105.414V17.2441H106.729C107.472 17.2441 108.043 16.6731 108.043 15.9308V4.05412Z" fill="white"/>
<path d="M122.849 34.8307V20.4416H120.163V34.8307H117.819V3.71147C117.819 1.71299 119.477 0 121.535 0C123.535 0 125.25 1.65589 125.25 3.71147V34.8307H122.849ZM122.849 3.71147C122.849 2.96918 122.278 2.39818 121.535 2.39818C120.791 2.39818 120.22 2.96918 120.22 3.71147V18.1006H122.907V3.71147H122.849Z" fill="white"/>
<path d="M136.341 2.74074V34.8307H133.997V2.74074H131.653V0.399658H138.684V2.74074H136.341Z" fill="white"/>
<path d="M38.1869 0.114136C36.186 0.114136 34.4711 1.77002 34.4711 3.82561V34.9449H36.872L36.8149 3.82561C36.8149 3.08331 37.3865 2.51232 38.1297 2.51232C38.8728 2.51232 39.4445 3.08331 39.4445 3.82561V34.9449H41.8455V3.82561C41.9026 1.77002 40.2448 0.114136 38.1869 0.114136Z" fill="white"/>
</svg>
